<?xml version="1.0" encoding="utf-8"?>
<!-- Generator: Adobe Illustrator 16.0.0, SVG Export Plug-In . SVG Version: 6.00 Build 0)  -->
<!DOCTYPE svg PUBLIC "-//W3C//DTD SVG 1.1//EN" "http://www.w3.org/Graphics/SVG/1.1/DTD/svg11.dtd">
<svg version="1.1" id="Layer_1" xmlns="http://www.w3.org/2000/svg" xmlns:xlink="http://www.w3.org/1999/xlink" x="0px" y="0px"
	 width="113.75px" height="102.25px" viewBox="0 0 113.75 102.25" enable-background="new 0 0 113.75 102.25" xml:space="preserve">
<path fill="#CCCCCC" d="M109.51,33.708c-1.676,0-3.115,0.998-3.765,2.429h-8.296c-0.364-4.555-2.172-8.704-4.966-11.989l5.866-5.866
	c1.473,0.552,3.196,0.24,4.38-0.945c1.616-1.616,1.616-4.236,0-5.852c-1.616-1.616-4.236-1.616-5.852,0
	c-1.185,1.184-1.497,2.907-0.945,4.379l-5.866,5.867c-3.284-2.794-7.433-4.602-11.988-4.967V8.47
	c1.431-0.651,2.428-2.091,2.428-3.765c0-2.286-1.853-4.138-4.138-4.138c-2.286,0-4.138,1.853-4.138,4.138
	c0,1.674,0.997,3.114,2.429,3.765v8.295c-4.557,0.365-8.704,2.173-11.988,4.967l-5.867-5.867c0.552-1.472,0.24-3.195-0.945-4.379
	c-1.616-1.616-4.236-1.616-5.852,0c-1.616,1.615-1.616,4.236,0,5.852c1.184,1.184,2.908,1.497,4.38,0.944l5.867,5.867
	c-2.794,3.284-4.603,7.433-4.967,11.988h-8.296c-0.651-1.431-2.09-2.429-3.766-2.429c-2.285,0-4.138,1.854-4.138,4.138
	c0,2.286,1.853,4.139,4.138,4.139c1.676,0,3.114-0.997,3.766-2.429l8.296,0c0.364,4.557,2.173,8.705,4.967,11.989l-5.867,5.867
	c-1.472-0.552-3.195-0.24-4.38,0.945c-1.616,1.616-1.616,4.236,0,5.852s4.236,1.616,5.852,0c1.185-1.184,1.497-2.908,0.945-4.38
	l5.867-5.867c3.284,2.794,7.432,4.603,11.988,4.967v8.296c-1.432,0.65-2.429,2.09-2.429,3.765c0,2.285,1.853,4.138,4.138,4.138
	c2.285,0,4.138-1.853,4.138-4.138c0-1.675-0.998-3.115-2.428-3.765v-8.296c4.555-0.364,8.704-2.173,11.987-4.967l5.867,5.867
	c-0.552,1.472-0.24,3.195,0.945,4.38c1.616,1.616,4.236,1.616,5.852,0c1.616-1.616,1.616-4.236,0-5.853
	c-1.184-1.184-2.907-1.497-4.38-0.944l-5.866-5.867c2.794-3.284,4.602-7.432,4.966-11.989h8.296c0.65,1.433,2.089,2.43,3.765,2.43
	c2.286,0,4.137-1.853,4.138-4.138C113.647,35.562,111.796,33.708,109.51,33.708z"/>
<g>
	<path d="M79.128,67.961c-1.671,2.201-3.62,4.179-5.797,5.88c0.756,0.818,1.835,1.333,3.037,1.333c2.285,0,4.138-1.852,4.138-4.138
		C80.506,69.814,79.973,68.719,79.128,67.961z"/>
	<path d="M53.687,16.75c1.436,0,2.848,0.096,4.232,0.28l-1.116-1.116c0.552-1.472,0.24-3.195-0.945-4.38
		c-1.616-1.616-4.236-1.616-5.852,0c-1.493,1.493-1.604,3.843-0.336,5.466C50.986,16.835,52.326,16.75,53.687,16.75z"/>
	<path d="M109.51,33.758c-1.676,0-3.115,0.997-3.765,2.429h-8.296c-0.364-4.557-2.172-8.705-4.966-11.989l5.866-5.867
		c1.473,0.553,3.196,0.239,4.38-0.944c1.616-1.616,1.616-4.236,0-5.853s-4.236-1.616-5.852,0c-1.185,1.185-1.497,2.908-0.945,4.38
		l-5.866,5.867c-3.284-2.794-7.433-4.603-11.988-4.967V8.519c1.431-0.651,2.428-2.091,2.428-3.766c0-2.285-1.853-4.139-4.138-4.139
		c-2.286,0-4.138,1.854-4.138,4.139c0,1.675,0.997,3.114,2.429,3.766v8.295c-3.027,0.242-5.872,1.125-8.404,2.507
		c11.383,4.88,19.357,16.186,19.357,29.355c0,3.05-0.429,6-1.227,8.794c2.08-0.853,3.994-2.025,5.681-3.459l5.866,5.867
		c-0.552,1.472-0.24,3.195,0.945,4.379c1.616,1.617,4.236,1.617,5.852,0c1.616-1.615,1.616-4.235,0-5.851
		c-1.184-1.185-2.907-1.497-4.38-0.945l-5.866-5.867c2.794-3.284,4.602-7.433,4.966-11.988h8.296
		c0.65,1.432,2.089,2.429,3.765,2.429c2.286,0,4.137-1.854,4.138-4.138C113.647,35.61,111.796,33.758,109.51,33.758z"/>
</g>
<path fill="#055FAA" d="M80.986,21.263c-15.071-15.072-39.507-15.072-54.578,0c-13.763,13.763-14.955,35.334-3.581,50.452
	c-0.108,0.095-0.215,0.192-0.318,0.296L2.285,92.235c-2.319,2.32-2.47,5.93-0.336,8.064c2.135,2.134,5.745,1.983,8.065-0.336
	L30.238,79.74c0.103-0.104,0.201-0.211,0.295-0.318c15.119,11.373,36.689,10.182,50.453-3.581
	C96.058,60.769,96.058,36.333,80.986,21.263z M76.172,71.027c-12.412,12.412-32.537,12.412-44.949,0
	c-12.412-12.413-12.412-32.538,0-44.95c12.413-12.413,32.537-12.413,44.949,0C88.585,38.489,88.585,58.614,76.172,71.027z"/>
</svg>
